<?xml version="1.0" encoding="utf-8"?>
<!-- Generator: Adobe Illustrator 27.5.0, SVG Export Plug-In . SVG Version: 6.00 Build 0)  -->
<svg version="1.1" id="Capa_2_00000174583160797886262930000000574717726575293078_"
	 xmlns="http://www.w3.org/2000/svg" xmlns:xlink="http://www.w3.org/1999/xlink" x="0px" y="0px" viewBox="0 0 2122 2122"
	 style="enable-background:new 0 0 2122 2122;" xml:space="preserve">
<path style="fill:#2D2E83;" d="M1853.819,1476.114c-16.277-36.676-36.175-63.381-47.573-97.139
	c2.753-37.277,8.864-74.701,14.799-111.024c6.243-38.231,12.703-77.763,15.274-117.154c4.519-69.264-3.189-165.778-65.581-232.231
	c-23.971-25.53-54.129-44.31-83.294-62.47c-29.269-18.224-59.535-37.07-82.82-62.499c-38.492-42.042-55.652-98.916-72.249-153.917
	c-6.163-20.429-12.536-41.552-19.927-61.71c-29.911-81.584-79.91-154.679-144.288-212.295c-3.73-4.699-7.589-9.281-11.575-13.735
	c-77.382-86.494-196.407-140.367-307.912-132.39c-10.466-0.749-20.998-0.953-31.557-0.636
	c-102.266-35.032-237.211,28.002-288.689,90.289c-48.294,58.438-74.59,134.076-71.963,205.295
	c-11.199,33.214-20.6,66.419-29.038,95.329c-20.41,69.929-29.199,145.868-71.733,205.007
	c-49.259,68.489-136.555,103.712-191.337,165.465c-4.236,4.775-8.277,9.71-12.091,14.829c-41.205,25.094-75.013,56.3-89.069,100.427
	c-11.981,37.6,1.437,85.934,14.414,132.674c7.903,28.465,15.367,55.352,16.736,78.285c1.406,23.579-9.888,42.585-21.846,62.707
	c-19.109,32.159-40.443,68.066-14.042,129.444c-17.74,49.588-22.407,102.84-0.472,152.655c5.573,12.657,12.061,25.291,19.329,37.752
	c22.172-121.408,58.761-233.935,112.284-279.513c98.556-97.997,320.472-42.262,443.959-191.492l49.378-21.508
	c5.693-36.284,9.445-73.39,12.633-109.219c0.307-3.667,0.613-7.505,0.921-11.344c0.478-5.666,0.956-11.517,1.425-17.515
	l-0.002-0.001c0.381-4.866,0.756-9.818,1.121-14.857l0.037-0.513c0.04-0.552,0.08-1.104,0.119-1.659
	c0.288-4.104,0.571-8.259,0.849-12.454c0.056-0.839,0.111-1.679,0.166-2.521c0.107-1.629,0.212-3.264,0.317-4.904
	c-73.865-48.368-133.378-130.22-167.181-222.579c-4.784,2.943-10.001,4.887-15.564,5.652c-31.511,4.337-62.21-30.731-68.569-78.328
	c-6.358-47.596,14.032-89.695,45.543-94.033c10.28-1.415,20.473,1.365,29.764,7.405c10.195-16.39,20.921-30.487,31.708-36.239
	c29.55-15.756,34.688-31.557,49.817-60.584c9.382-18.003,15.016-11.3,36.729-9.156c39.394,3.889,80.009-0.188,116.328-16.487
	c38.974-17.491,72.934-50.563,89.579-92.063c16.646,41.5,50.605,74.572,89.579,92.063c36.319,16.3,76.935,20.376,116.328,16.487
	c21.713-2.144,27.346-8.846,36.729,9.156c15.128,29.027,20.266,44.828,49.816,60.584c11.353,6.053,21.907,18.813,31.729,33.354
	c7.894-4.004,16.302-5.685,24.769-4.52c31.511,4.338,51.901,46.437,45.542,94.033c-6.358,47.596-37.057,82.664-68.568,78.328
	c-5.5-0.757-10.661-2.666-15.401-5.552c-33.082,90.331-90.756,170.603-162.398,219.312c0.063,1.002,0.126,2.003,0.19,3.001
	c0.108,1.695,0.217,3.385,0.327,5.069c0.055,0.842,0.111,1.683,0.166,2.521c0.277,4.194,0.561,8.349,0.849,12.454
	c0.487,6.825,0.995,13.512,1.511,20.015c0.105,1.318,0.21,2.628,0.315,3.931c0.062,0.764,0.124,1.527,0.185,2.286
	c0.229,2.81,0.46,5.583,0.69,8.312c0.077,0.959,0.153,1.919,0.23,2.876c0.23,2.871,0.46,5.717,0.69,8.468
	c0.066,0.747,0.141,1.508,0.208,2.257l-0.006,0.003c3.267,36.502,7.149,74.279,13.093,111.123l48.52,17.344
	c122.313,147.813,341.215,94.537,441.136,188.741l0.133,0.125l1.16,1.108l0.237,0.228l1.314,1.29
	c1.346,1.145,2.681,2.333,4.005,3.563c0.993,0.922,1.98,1.867,2.961,2.836c2.289,2.259,4.546,4.643,6.771,7.147
	c2.542,2.861,5.042,5.879,7.5,9.046c0.922,1.187,1.838,2.396,2.748,3.625c0.91,1.229,1.814,2.478,2.712,3.748
	c0.599,0.847,1.195,1.702,1.789,2.566c2.671,3.889,5.29,7.958,7.856,12.194c0.285,0.471,0.57,0.944,0.853,1.419
	c0.568,0.949,1.134,1.908,1.696,2.874c0.844,1.449,1.682,2.917,2.515,4.403c0.376,0.671,0.75,1.347,1.124,2.025
	c0.453,0.824,0.906,1.651,1.356,2.486c0.547,1.014,1.092,2.036,1.634,3.066c0.542,1.03,1.082,2.067,1.619,3.112
	c0.269,0.522,0.537,1.047,0.804,1.573c0.802,1.579,1.597,3.175,2.388,4.786c0.263,0.537,0.526,1.077,0.788,1.617
	c0.786,1.623,1.567,3.263,2.342,4.919c0.516,1.104,1.031,2.215,1.543,3.332c0.511,1.118,1.021,2.243,1.527,3.375
	c0.507,1.132,1.011,2.27,1.513,3.416c1.003,2.29,1.996,4.608,2.979,6.953c0.983,2.344,1.957,4.714,2.92,7.109
	c0.722,1.797,1.439,3.607,2.15,5.432c0.474,1.217,0.946,2.439,1.415,3.667c0.703,1.843,1.402,3.699,2.094,5.569
	c0.462,1.247,0.921,2.498,1.378,3.757c0.229,0.629,0.456,1.259,0.684,1.891c0.908,2.527,1.807,5.077,2.697,7.649
	c0.223,0.643,0.444,1.287,0.665,1.933c0.277,0.808,0.552,1.62,0.827,2.433c0.329,0.971,0.656,1.947,0.982,2.924l0.326,0.979
	c0.38,1.146,0.759,2.295,1.135,3.448c0.215,0.659,0.43,1.319,0.643,1.98c0.641,1.984,1.277,3.979,1.907,5.985
	c0.21,0.668,0.42,1.339,0.629,2.01c0.417,1.343,0.833,2.69,1.246,4.042c0.413,1.352,0.823,2.708,1.231,4.069
	c0.408,1.361,0.814,2.727,1.217,4.097c1.008,3.426,2.001,6.879,2.979,10.358c0.391,1.392,0.78,2.788,1.166,4.188
	c0.334,1.209,0.665,2.422,0.996,3.638c0.625,2.302,1.245,4.614,1.858,6.937c0.562,2.129,1.118,4.267,1.669,6.413
	c0.367,1.431,0.732,2.865,1.095,4.303c0.363,1.438,0.723,2.879,1.081,4.323c0.214,0.864,0.428,1.73,0.64,2.597
	c0.32,1.306,0.639,2.615,0.955,3.926c0.702,2.909,1.394,5.831,2.076,8.764c0.512,2.2,1.019,4.407,1.521,6.62
	c0.334,1.475,0.667,2.953,0.996,4.434c0.66,2.962,1.31,5.934,1.95,8.917c0.32,1.491,0.639,2.984,0.954,4.48
	c0.474,2.244,0.942,4.493,1.405,6.747s0.921,4.513,1.374,6.776c0.302,1.509,0.601,3.02,0.898,4.533
	c0.326,1.658,0.649,3.318,0.969,4.981c0.237,1.226,0.472,2.454,0.705,3.683c0.172,0.904,0.343,1.81,0.513,2.715
	c0.143,0.761,0.285,1.522,0.427,2.283c0.85,4.568,1.68,9.151,2.49,13.744c0.27,1.531,0.537,3.064,0.803,4.597
	c0.266,1.533,0.528,3.067,0.789,4.603c0.13,0.767,0.26,1.536,0.39,2.303c0.51,3.034,1.013,6.072,1.506,9.113
	c15.183-21.759,28.182-44.478,38.217-67.268c5.233-11.883,8.95-23.961,11.338-36.139l0.175-0.18l-0.117-0.115
	C1883.791,1568.267,1873.389,1520.209,1853.819,1476.114z M335.654,1021.587c-50.18,97.152-4.831,210.452-11.816,313.3
	c-3.967,58.403-33.665,90.141-56.337,141.226c-1.297,2.923-2.553,5.863-3.767,8.819c-18.259-50.694-0.214-81.068,17.345-110.617
	c12.2-20.531,24.814-41.761,23.225-68.397c-1.43-23.99-9.03-51.371-17.079-80.36c-12.585-45.332-25.601-92.209-14.524-126.974
	c10.987-34.488,35.273-60.848,65.979-82.609C337.642,1017.822,336.633,1019.692,335.654,1021.587z M740.761,351.938
	c-25.066,28.018-45.195,61.07-58.868,96.52c-5.282,11.79-10.229,23.988-14.884,36.369c4.48-59.812,28.935-120.656,69.112-169.268
	c45.055-54.519,156.263-109.718,249.818-94.224C894.299,232.76,803.738,281.546,740.761,351.938z M1799.041,1349.258
	c-0.692-4.617-1.22-9.395-1.558-14.371c-6.986-102.849,38.363-216.148-11.817-313.3c-7.842-15.183-17.605-28.781-28.702-41.29
	c-54.783-61.753-142.079-96.977-191.338-165.465c-42.535-59.139-51.323-135.078-71.733-205.007
	c-19.447-66.63-50.705-138.527-91.527-195.856c43.612,48.733,78.043,105.597,100.714,167.434
	c7.292,19.886,13.62,40.867,19.745,61.157c16.918,56.073,34.411,114.054,74.443,157.773c24.209,26.439,55.064,45.652,84.903,64.232
	c28.621,17.822,58.217,36.251,81.294,60.83c59.941,63.842,67.288,157.459,62.896,224.752c-2.538,38.906-8.957,78.198-15.165,116.195
	C1806.757,1293.514,1802.221,1321.297,1799.041,1349.258z"/>
<path style="fill:#F4ABC9;" d="M1397.625,632.284c-8.467-1.165-16.875,0.516-24.769,4.52c-9.822-14.541-20.377-27.3-31.729-33.354
	c-29.55-15.756-34.688-31.557-49.816-60.584c-9.383-18.003-15.016-11.3-36.729-9.156c-39.393,3.889-80.009-0.188-116.328-16.487
	c-38.974-17.491-72.934-50.563-89.579-92.063c-16.645,41.5-50.605,74.572-89.579,92.063c-36.319,16.3-76.934,20.376-116.328,16.487
	c-21.713-2.144-27.346-8.846-36.729,9.156c-15.129,29.027-20.267,44.828-49.817,60.584c-10.787,5.752-21.513,19.849-31.708,36.239
	c-9.291-6.04-19.484-8.82-29.764-7.405c-31.511,4.338-51.901,46.437-45.543,94.033c6.359,47.596,37.058,82.664,68.569,78.328
	c5.564-0.766,10.78-2.71,15.564-5.652c33.803,92.359,93.316,174.211,167.181,222.579c44.252,28.976,93.654,45.936,145.767,45.936
	c53.983,0,105.058-18.199,150.512-49.103c0.063,1.002,0.126,2.003,0.19,3.001c-0.064-0.998-0.127-1.999-0.19-3.001
	c71.642-48.708,129.316-128.981,162.398-219.312c4.74,2.886,9.9,4.795,15.401,5.552c31.511,4.337,62.21-30.731,68.568-78.328
	C1449.526,678.721,1429.135,636.622,1397.625,632.284z"/>
<path style="fill:#F8C540;" d="M1263.977,1217.478l-48.519-17.342l-0.609,0.107l-0.217,0.58c2.334,14.455,4.914,28.28,7.667,41.089
	l0.355,0.439l0.253,0.053l0.312-0.085l40.017-23.213l0.008-0.002l0.843-0.502l0.302-0.597L1263.977,1217.478z"/>
<path style="fill:#F8C540;" d="M883.317,1196.063l-0.631-0.078l-49.379,21.508l-0.375,0.548l0.329,0.575l41.382,22.187l0.295,0.073
	l0.263-0.058l0.346-0.436c2.889-13.571,5.581-28.283,8.005-43.727L883.317,1196.063z"/>
<path style="fill:#F4ABC9;" d="M1215.865,1200.623c-6.229-38.611-10.112-77.817-13.089-111.079l-0.336-0.499l-0.602,0.017
	c-60.473,35.469-131.963,45.081-196.144,26.375c-35.758-10.419-69.885-28.674-107.4-57.452l-0.634-0.075l-0.368,0.521
	c-0.47,5.995-0.947,11.846-1.425,17.515c-0.307,3.837-0.614,7.674-0.921,11.338c-2.914,32.752-6.692,71.337-12.628,109.177
	c-2.419,15.423-5.109,30.114-7.991,43.663l0.314,0.68l182.202,97.686l0.295,0.073l0.312-0.085l165.768-96.158l0.297-0.67
	C1220.768,1228.862,1218.194,1215.059,1215.865,1200.623z"/>
<path style="fill:#EC76A0;" d="M1202.573,1087.288c-0.229-2.75-0.46-5.598-0.689-8.467l-0.231-2.877
	c-0.229-2.729-0.46-5.5-0.689-8.309l-0.499-6.217c-0.516-6.504-1.023-13.189-1.51-20.01c-0.29-4.104-0.573-8.258-0.85-12.451
	l-0.682-10.592l-0.346-0.521l-0.626,0.044c-47.817,32.512-98.341,48.996-150.163,48.996c-50.052,0-98.979-15.42-145.425-45.834
	l-0.619-0.036l-0.343,0.519l-0.482,7.422c-0.278,4.195-0.56,8.349-0.85,12.453l-0.156,2.171c-0.363,5.035-0.74,9.99-1.118,14.853
	l0.241,0.543c37.642,28.874,71.9,47.196,107.81,57.662c21.625,6.3,44.068,9.403,66.648,9.403c44.78,0,90.081-12.209,130.478-35.9
	l0.014-0.007l0.002-0.003l0.295-0.587L1202.573,1087.288z"/>
<path style="fill:#331633;" d="M1035.456,770.843c-0.577-3.013-3.528-5.036-6.568-4.458c-10.341,1.978-19.942,9.123-25.686,19.11
	c-1.54,2.682-0.611,6.122,2.071,7.664c0.853,0.487,1.817,0.745,2.791,0.745c2.008,0,3.874-1.079,4.872-2.814
	c4.131-7.194,10.884-12.307,18.061-13.681C1034.036,776.828,1036.038,773.883,1035.456,770.843z"/>
<path style="fill:#331633;" d="M1082.038,730.68c-2.085-3.454-4.239-7.023-5.907-10.348c-1.824-3.637-4.078-7.659-6.041-11.115
	l-0.494-0.312c-3.832-0.307-7.783-0.411-11.735-0.322l-0.529,0.317l0.002,0.616l0.641,1.12c3.05,5.33,5.932,10.366,8.12,14.729
	c1.824,3.635,3.971,7.196,6.241,10.964l0.09,0.149c5.844,9.686,11.888,19.703,11.384,29.73c-1.097,21.7-18.322,28.229-36.561,35.143
	c-3.456,1.311-7.379,2.796-10.991,4.355c-1.376,0.594-2.438,1.691-2.991,3.084c-0.553,1.393-0.528,2.918,0.066,4.292
	c0.889,2.061,2.911,3.391,5.155,3.391c0.765,0,1.513-0.156,2.222-0.463c3.345-1.442,6.792-2.75,10.521-4.165
	c18.857-7.147,42.324-16.044,43.79-45.072C1095.699,753.328,1088.445,741.303,1082.038,730.68z"/>
<path style="fill:#331633;" d="M1050.981,673.057c-1.24-2.826-4.563-4.122-7.396-2.879c-2.833,1.247-4.124,4.565-2.88,7.396
	c2.996,6.821,6.5,13.812,11.021,22.002l0.546,0.322l0.042-0.002c3.769-0.239,7.552-0.312,11.247-0.219h0.017l0.533-0.302l0.01-0.629
	C1060.006,691.459,1055.227,682.706,1050.981,673.057z"/>
<path style="fill:#2D2E83;" d="M952.009,629.834c-15.539-9.62-33.437-14.704-51.756-14.704c-16.685,0-33.184,4.266-47.715,12.333
	l-0.304,0.694l0.589,0.475l93.345,2.4c0.95,0.024,1.856,0.044,2.738,0.044c0.957,0,1.886-0.025,2.819-0.09l0.563-0.472
	L952.009,629.834z"/>
<path style="fill:#2D2E83;" d="M975.626,589.64c-0.762-1.564-2.051-2.619-3.83-3.14c-8.989-2.626-18.621-3.384-27.934-4.117
	l-3.661-0.292c-10.531-0.87-21.493-1.247-32.753-1.206c-19.284,0.119-35.919,1.659-50.86,4.712
	c-12.957,2.645-22.292,6.122-30.268,11.267c-4.948,3.194-13.449,9.668-14.789,17.169c-0.553,3.101,0.2,6.049,2.239,8.76
	c0.748,0.999,1.661,1.859,2.711,2.555c3.398,2.256,7.805,2.553,11.668,2.653l7.126,0.183h0.017l0.375-0.127
	c18.75-14.168,41.081-21.656,64.584-21.656c22.368,0,43.82,6.843,62.039,19.788l0.794-0.061c3.167-3.074,5.734-7.491,8.078-13.898
	c0.251-0.687,0.587-1.527,0.964-2.479C974.365,604.132,978.106,594.726,975.626,589.64z"/>
<path style="fill:#2D2E83;" d="M1259.117,627.14c-13.785-7.067-28.667-10.651-44.226-10.651c-17.067,0-33.871,4.509-48.594,13.035
	l-0.288,0.711l0.6,0.453h0.017l92.224-2.37l0.592-0.484L1259.117,627.14z"/>
<path style="fill:#2D2E83;" d="M1287.874,614.029c-1.34-7.501-9.844-13.976-14.792-17.167c-7.974-5.145-17.308-8.622-30.266-11.267
	c-14.941-3.053-31.576-4.592-50.86-4.712c-11.15-0.051-22.214,0.336-32.752,1.206l-3.661,0.292
	c-9.313,0.733-18.945,1.491-27.937,4.117c-1.779,0.521-3.065,1.576-3.827,3.138c-2.48,5.086,1.262,14.492,3.498,20.112
	c0.377,0.952,0.714,1.792,0.964,2.479c1.949,5.33,5.264,12.848,11.515,16.543c2.322,1.374,5.084,2.093,8.692,2.261h0.03l0.39-0.137
	c18.95-15.138,41.781-23.138,66.022-23.138c22.18,0,43.435,6.812,61.466,19.693l0.463,0.11c2.478-0.407,4.475-1.13,6.105-2.215
	c1.045-0.694,1.956-1.554,2.711-2.555C1287.675,620.078,1288.427,617.131,1287.874,614.029z"/>
<path style="fill:#331633;" d="M952.233,670.719c-0.29-1.472-1.135-2.743-2.38-3.579c-52.906-35.484-110.037,3.476-110.611,3.871
	c-2.531,1.768-3.155,5.271-1.386,7.807c1.045,1.506,2.77,2.404,4.609,2.404c1.148,0,2.253-0.348,3.201-1.006
	c0.723-0.502,17.576-12.075,40.475-15.835c-5.662,6.787-8.88,16.334-8.88,26.492c0,19.754,12.195,35.825,27.184,35.825
	c14.989,0,27.182-16.071,27.182-35.825c0-8.828-2.405-17.172-6.804-23.72c6.524,2.195,12.831,5.32,18.775,9.308
	c1.242,0.838,2.73,1.13,4.209,0.85c1.474-0.29,2.745-1.138,3.581-2.382C952.221,673.686,952.523,672.19,952.233,670.719z"/>
<path style="fill:#331633;" d="M1260.223,670.587c-0.57-0.397-57.578-39.445-110.614-3.871c-1.245,0.836-2.09,2.107-2.38,3.579
	c-0.29,1.471,0.012,2.967,0.845,4.212c1.73,2.57,5.223,3.252,7.79,1.535c6.059-4.069,12.492-7.238,19.15-9.435
	c-4.641,6.624-7.179,15.162-7.179,24.268c0,19.754,12.195,35.825,27.184,35.825s27.184-16.071,27.184-35.825
	c0-10.448-3.369-20.171-9.296-26.982c23.126,3.688,40.161,15.391,40.892,15.9c0.948,0.657,2.053,1.006,3.201,1.006
	c1.839,0,3.564-0.899,4.609-2.405C1263.377,675.859,1262.754,672.356,1260.223,670.587z"/>
<path style="fill:#EC76A0;" d="M1076.401,965.227c-0.373-1.354-1.355-2.897-2.702-3.286c-0.604-0.166-1.537-0.193-2.545,0.726
	c-1.718,1.562-2.797,2.278-5.019,3.328c-2.434,1.152-5.089,1.99-7.681,2.419c-6.392,1.06-13.671,0.353-21.055-2.066
	c-0.919-0.299-1.808-0.216-2.584,0.242c-1.679,0.986-2.229,3.247-2.358,3.917c-0.329,1.708-0.626,6.799,2.229,7.732
	c3.805,1.247,10.458,2.999,17.788,2.999c7.445,0,15.588-1.808,22.153-7.786C1076.749,971.522,1077.124,967.854,1076.401,965.227z"/>
<path style="fill:#EC76A0;" d="M1413.701,690.346c-9.856-16.706-27.839-24.463-48.1-20.774c-1.469,0.268-2.528,1.116-2.982,2.382
	c-0.519,1.449-0.134,3.284,0.955,4.567c1.06,1.25,2.602,1.786,4.241,1.494c16.431-3.018,31.452,3.971,39.177,18.202l0.005,0.008
	c-9.406,2.518-17.365,10.835-21.394,22.419c-4.958,14.249-2.478,30.546,6.633,43.596c0.955,1.364,2.294,1.932,3.62,1.932
	c1.021,0,2.034-0.339,2.85-0.909c1.577-1.099,2.565-3.296,1.016-5.518c-7.515-10.755-9.773-23.605-6.197-35.255
	c2.333-7.608,8.151-16.831,16.928-18.171c4.11,12.729,3.311,27.82-2.266,42.565c-0.953,2.521,0.47,4.348,2.304,5.04
	c2.183,0.833,5.06,0.08,6.076-2.606C1424.381,728.662,1423.309,706.619,1413.701,690.346z"/>
<path style="fill:#EC76A0;" d="M729.756,671.954c-0.453-1.267-1.513-2.114-2.984-2.382c-20.26-3.688-38.243,4.068-48.1,20.774
	c-9.608,16.276-10.679,38.319-2.867,58.972c0.587,1.554,1.859,2.599,3.488,2.867c1.678,0.263,3.43-0.344,4.4-1.525
	c0.848-1.038,1.023-2.378,0.492-3.776c-5.576-14.743-6.375-29.837-2.266-42.565c8.792,1.34,14.601,10.56,16.928,18.171
	c3.566,11.661,1.308,24.512-6.197,35.255c-1.55,2.224-0.558,4.419,1.018,5.52c0.816,0.57,1.827,0.909,2.848,0.909
	c1.325,0,2.665-0.568,3.62-1.934c9.11-13.047,11.593-29.344,6.635-43.596c-4.034-11.583-11.993-19.9-21.395-22.419l0.007-0.012
	c7.72-14.222,22.743-21.196,39.174-18.197c1.637,0.307,3.179-0.246,4.241-1.496C729.887,675.235,730.272,673.401,729.756,671.954z"
	/>
<path style="fill:#FFFFFF;" d="M1132.069,854.168c-0.884-0.733-2.095-0.926-3.16-0.499c-54.407,21.79-113.817,28.809-171.817,20.312
	c-1.191-0.19-2.346,0.329-3.025,1.313c-0.665,0.965-0.723,2.149-0.156,3.169c17.4,31.289,51.868,62.231,89.481,62.231
	c3.527-0.003,7.084-0.273,10.655-0.843c38.134-6.085,70.643-40.124,79.06-82.777
	C1133.324,855.973,1132.937,854.889,1132.069,854.168z"/>
<g>
	<path style="fill:#FFFFFF;" d="M1008.001,720.579c6.595-3.002,25.928-10.8,49.874-11.374c3.786-0.09,7.688,0,11.672,0.318
		c12.501,0.999,25.822,4.245,38.97,11.204c3.613,55.533,49.943,99.608,106.374,99.608c58.779,0,106.599-47.819,106.599-106.599
		c0-35.748-17.687-67.442-44.77-86.792c-17.449-12.467-38.797-19.81-61.829-19.81c-25.09,0-48.182,8.714-66.412,23.273
		c-23.448,18.727-38.851,47.124-40.106,79.094c-15.411-7.236-30.741-10.083-44.796-10.451c-3.874-0.101-7.651-0.014-11.306,0.222
		c-19.4,1.251-35.361,6.684-44.133,10.323c-1.311-34.6-18.984-65.084-45.486-83.917c-17.631-12.529-39.169-19.903-62.398-19.903
		c-24.367,0-46.873,8.115-64.96,21.784c-26.102,19.725-43.001,51.014-43.001,86.177c0,59.53,48.432,107.961,107.961,107.961
		C957.487,821.698,1004.459,776.934,1008.001,720.579z M1166.608,630.065c14.214-8.233,30.707-12.951,48.282-12.951
		c15.813,0,30.751,3.819,43.94,10.582c31.248,16.024,52.681,48.576,52.681,86.041c0,53.276-43.345,96.621-96.621,96.621
		c-53.279,0-96.623-43.345-96.623-96.621C1118.267,678.033,1137.733,646.792,1166.608,630.065z M900.253,811.72
		c-54.027,0-97.983-43.956-97.983-97.983c0-36.839,20.438-68.995,50.569-85.727c14.059-7.806,30.226-12.256,47.414-12.256
		c18.848,0,36.47,5.351,51.429,14.611c27.919,17.285,46.557,48.193,46.557,83.371C998.238,767.763,954.282,811.72,900.253,811.72z"
		/>
</g>
<path style="fill:#FFFFFF;" d="M631.729,806.27c-2.541-0.624-5.664,0.329-6.519,3.861c-16.185,66.838-72.685,108.521-127.32,148.833
	c-6.97,5.143-14.178,10.461-21.04,15.654c-28.678,21.703-58.516,45.423-80.509,75.669c-22.249,30.599-32.563,66.093-30.66,105.493
	c0.677,13.959,2.348,28.061,3.968,41.698c0.923,7.785,1.878,15.834,2.636,23.761c2.862,29.939,2.909,57.405,0.139,83.968
	c-0.197,1.885,0.446,3.466,1.808,4.456c0.909,0.66,2.085,0.996,3.301,0.996c0.898,0,1.822-0.185,2.667-0.563
	c1.964-0.875,3.218-2.609,3.445-4.758c2.514-24.127,2.73-49.471,0.645-75.335c-0.877-10.885-2.161-21.905-3.4-32.563
	c-1.018-8.743-2.073-17.781-2.894-26.689c-1.503-16.3-2.553-35.532,1.05-54.609c3.471-18.387,11.038-36.46,22.49-53.712
	c20.37-30.687,49.688-54.285,77.973-75.827c7.785-5.93,15.786-11.868,23.525-17.61c22.507-16.704,45.778-33.976,66.785-53.271
	c35.802-32.887,57.466-66.46,66.229-102.646C636.911,809.503,634.528,806.947,631.729,806.27z"/>
<path style="fill:#FFFFFF;" d="M1436.171,562.507c-33.69-114.153-114.258-212.903-221.042-270.928
	c-29.98-16.29-61.7-29.05-94.282-37.927c-3.447-0.926-6.01,1.298-6.746,3.995c-0.73,2.684,0.329,5.893,3.769,6.831
	c111.939,30.499,209.887,107.118,268.733,210.207c16.409,28.745,29.447,59.303,38.748,90.823c0.811,2.74,3.025,3.949,5.262,3.949
	c0.609,0,1.218-0.088,1.802-0.261C1434.953,568.446,1437.212,566.034,1436.171,562.507z"/>
<path style="fill:#FFFFFF;" d="M1253.823,483.14c-0.901-1.866-2.628-3.025-4.738-3.181c-53.966-4.005-105.381-29.988-141.062-71.291
	c-2.302-2.668-5.296-2.154-7.238-0.47c-2.212,1.91-3.232,5.484-0.765,8.341c37.303,43.179,91.6,70.385,148.972,74.64l0.477,0.02
	c1.718,0,3.14-0.714,4.044-2.039C1254.639,487.506,1254.764,485.087,1253.823,483.14z"/>
<path style="fill:#FFFFFF;" d="M1005.159,408.198c-1.951-1.688-4.94-2.192-7.238,0.47c-35.681,41.303-87.096,67.286-141.062,71.291
	c-3.766,0.28-5.569,3.535-5.352,6.453c0.18,2.436,1.778,4.787,4.945,4.787l0.499-0.02c57.371-4.256,111.669-31.461,148.97-74.64
	C1008.389,413.683,1007.371,410.11,1005.159,408.198z"/>
<path style="fill:#FFEE79;" d="M1523.852,1338.094c-89.464-17.522-190.864-37.383-259.583-120.426l-0.792-0.141l-206.351,119.698
	l-223.276-119.71l-0.775,0.153c-68.719,83.043-170.119,102.904-259.58,120.426c-72.307,14.161-140.604,27.537-184.302,70.989
	c-60.073,51.157-94.334,180.433-112.495,279.876c-5.438,29.781-10.66,60.484-13.992,92.383
	c101.394,51.98,215.056,82.654,344.868,94.119c153.028,13.51,301.695,6.061,441.878-22.134
	c153.844-30.95,289.951-85.764,404.541-162.921c57.481-38.704,108.207-83.936,146.694-130.806
	c45.406-55.291,73.552-111.927,83.671-168.348l2.338,0.076C1643.654,1361.283,1585.505,1350.17,1523.852,1338.094z"/>
<path style="fill:#F8C540;" d="M1843.922,1877.769c-0.097-1.447-0.197-2.894-0.302-4.344c-0.307-4.356-0.634-8.738-0.979-13.15
	l-0.351-4.419c-0.539-6.636-1.123-13.391-1.74-20.08c-0.346-3.747-0.704-7.508-1.077-11.279l-1.157-11.354
	c-0.639-6.076-1.313-12.176-2.02-18.297c-0.444-3.825-0.899-7.659-1.369-11.498c-0.185-1.535-0.375-3.072-0.568-4.609
	c-0.29-2.307-0.582-4.614-0.88-6.926c-0.297-2.309-0.602-4.619-0.909-6.933l-0.309-2.311c-0.312-2.314-0.626-4.626-0.948-6.941
	l-0.65-4.631c-0.329-2.314-0.66-4.631-0.999-6.948c-0.448-3.086-0.909-6.173-1.376-9.259l-1.067-6.94
	c-0.487-3.123-0.984-6.244-1.488-9.362c-0.494-3.045-0.996-6.083-1.51-9.118l-0.388-2.304c-0.26-1.535-0.524-3.07-0.789-4.604
	c-0.265-1.535-0.533-3.067-0.804-4.597c-0.809-4.597-1.639-9.181-2.49-13.751l-1.647-8.687c-0.322-1.661-0.643-3.323-0.969-4.98
	c-0.297-1.515-0.597-3.025-0.899-4.536c-0.453-2.266-0.911-4.524-1.374-6.782c-0.463-2.254-0.931-4.505-1.408-6.748
	c-0.314-1.496-0.634-2.989-0.953-4.482c-0.641-2.984-1.291-5.959-1.951-8.923c-0.329-1.479-0.663-2.958-0.996-4.436
	c-0.502-2.215-1.011-4.422-1.523-6.621c-0.682-2.938-1.374-5.859-2.075-8.77l-2.677-10.855c-0.363-1.438-0.728-2.872-1.096-4.305
	c-0.551-2.146-1.106-4.285-1.669-6.416c-0.614-2.324-1.235-4.636-1.858-6.94l-0.997-3.64c-0.387-1.403-0.774-2.799-1.169-4.19
	c-0.977-3.483-1.971-6.938-2.979-10.365c-0.402-1.372-0.811-2.738-1.218-4.103c-0.41-1.361-0.819-2.721-1.233-4.073
	c-0.412-1.349-0.828-2.702-1.247-4.041l-0.629-2.015c-0.631-2.005-1.267-4.003-1.907-5.988l-0.643-1.981
	c-0.378-1.157-0.758-2.307-1.138-3.452l-2.802-8.278c-0.889-2.575-1.791-5.128-2.699-7.657l-0.684-1.892
	c-0.456-1.26-0.918-2.512-1.379-3.762c-0.694-1.871-1.394-3.729-2.097-5.576c-0.47-1.228-0.94-2.453-1.417-3.669
	c-0.711-1.827-1.428-3.64-2.151-5.437c-0.965-2.4-1.939-4.772-2.923-7.118c-0.984-2.348-1.981-4.667-2.984-6.965
	c-0.502-1.145-1.006-2.285-1.513-3.42c-0.509-1.13-1.018-2.259-1.53-3.376c-0.514-1.121-1.028-2.234-1.544-3.34
	c-0.78-1.656-1.559-3.301-2.348-4.926l-0.789-1.62c-0.792-1.615-1.589-3.213-2.392-4.794l-0.804-1.573
	c-0.539-1.048-1.08-2.085-1.622-3.118c-0.543-1.033-1.087-2.056-1.637-3.069c-0.451-0.838-0.904-1.669-1.359-2.492
	c-0.373-0.68-0.748-1.359-1.125-2.03c-0.833-1.488-1.674-2.958-2.519-4.414c-0.563-0.967-1.13-1.93-1.698-2.88l-0.855-1.423
	c-2.577-4.253-5.228-8.365-7.876-12.224c-0.597-0.865-1.196-1.725-1.796-2.573c-0.899-1.272-1.805-2.526-2.719-3.761
	c-0.913-1.23-1.834-2.441-2.757-3.635c-2.48-3.193-5.014-6.248-7.527-9.077c-2.251-2.533-4.539-4.948-6.797-7.174
	c-0.987-0.974-1.978-1.925-2.977-2.853c-1.335-1.237-2.687-2.443-3.985-3.547l-1.323-1.296l-0.236-0.227l-1.164-1.114l-0.134-0.124
	c-6.29-5.926-13.379-11.537-21.074-16.674c-25.988,147.834-170.465,258.954-230.962,299.693
	c-219.722,147.946-520.024,213.597-845.609,184.845c-129.993-11.479-243.405-41.934-344.86-94.088
	c-4.821,38.848-8.373,77.883-10.555,116.012l-0.217,3.8l0.624,0.034l-0.634,0.19l-0.39,7.408l0.171,0.46l0.453,0.195h1592.787
	l0.451-0.195l0.173-0.46C1845.206,1897.877,1844.609,1887.847,1843.922,1877.769z"/>
</svg>
